<mxfile host="app.diagrams.net" agent="Mozilla/5.0 (Windows NT 10.0; Win64; x64) AppleWebKit/537.36 (KHTML, like Gecko) Chrome/136.0.0.0 Safari/537.36" version="27.1.6">
  <diagram name="Page-1" id="5Ik2N1ymnzJY92Wbv4VA">
    <mxGraphModel dx="2492" dy="1745" grid="1" gridSize="10" guides="1" tooltips="1" connect="1" arrows="1" fold="1" page="1" pageScale="1" pageWidth="850" pageHeight="1100" math="0" shadow="0">
      <root>
        <mxCell id="0" />
        <mxCell id="1" parent="0" />
        <mxCell id="ZHBRc-rMhsBS03Q9fHRM-2" value="Finish" style="rounded=1;whiteSpace=wrap;html=1;arcSize=50;" parent="1" vertex="1">
          <mxGeometry x="120" y="1190" width="120" height="40" as="geometry" />
        </mxCell>
        <mxCell id="ZHBRc-rMhsBS03Q9fHRM-9" value="" style="edgeStyle=orthogonalEdgeStyle;rounded=0;orthogonalLoop=1;jettySize=auto;html=1;" parent="1" source="ZHBRc-rMhsBS03Q9fHRM-3" target="ZHBRc-rMhsBS03Q9fHRM-8" edge="1">
          <mxGeometry relative="1" as="geometry" />
        </mxCell>
        <mxCell id="ZHBRc-rMhsBS03Q9fHRM-3" value="Membaca&lt;div&gt;Acceleration&lt;/div&gt;&lt;div&gt;Sensor IMU&lt;/div&gt;" style="shape=parallelogram;perimeter=parallelogramPerimeter;whiteSpace=wrap;html=1;fixedSize=1;size=10;" parent="1" vertex="1">
          <mxGeometry x="120" y="130" width="120" height="50" as="geometry" />
        </mxCell>
        <mxCell id="ZHBRc-rMhsBS03Q9fHRM-12" value="" style="edgeStyle=orthogonalEdgeStyle;rounded=0;orthogonalLoop=1;jettySize=auto;html=1;" parent="1" source="ZHBRc-rMhsBS03Q9fHRM-6" target="ZHBRc-rMhsBS03Q9fHRM-11" edge="1">
          <mxGeometry relative="1" as="geometry" />
        </mxCell>
        <mxCell id="ZHBRc-rMhsBS03Q9fHRM-29" value="" style="edgeStyle=orthogonalEdgeStyle;rounded=0;orthogonalLoop=1;jettySize=auto;html=1;" parent="1" source="ZHBRc-rMhsBS03Q9fHRM-6" target="ZHBRc-rMhsBS03Q9fHRM-28" edge="1">
          <mxGeometry relative="1" as="geometry" />
        </mxCell>
        <mxCell id="ZHBRc-rMhsBS03Q9fHRM-6" value="A_total &amp;lt; 0.5g?&lt;div&gt;(Free Fall)&lt;/div&gt;" style="rhombus;whiteSpace=wrap;html=1;" parent="1" vertex="1">
          <mxGeometry x="110" y="280" width="140" height="80" as="geometry" />
        </mxCell>
        <mxCell id="ZHBRc-rMhsBS03Q9fHRM-10" value="" style="edgeStyle=orthogonalEdgeStyle;rounded=0;orthogonalLoop=1;jettySize=auto;html=1;" parent="1" source="ZHBRc-rMhsBS03Q9fHRM-8" target="ZHBRc-rMhsBS03Q9fHRM-6" edge="1">
          <mxGeometry relative="1" as="geometry" />
        </mxCell>
        <mxCell id="ZHBRc-rMhsBS03Q9fHRM-8" value="Total akselerasi&lt;br&gt;A_total =&amp;nbsp;√(Ax² + Ay² + Az²)&amp;nbsp;" style="rounded=0;whiteSpace=wrap;html=1;" parent="1" vertex="1">
          <mxGeometry x="100" y="200" width="160" height="60" as="geometry" />
        </mxCell>
        <mxCell id="ZHBRc-rMhsBS03Q9fHRM-16" value="" style="edgeStyle=orthogonalEdgeStyle;rounded=0;orthogonalLoop=1;jettySize=auto;html=1;" parent="1" source="ZHBRc-rMhsBS03Q9fHRM-11" target="ZHBRc-rMhsBS03Q9fHRM-15" edge="1">
          <mxGeometry relative="1" as="geometry" />
        </mxCell>
        <mxCell id="ZHBRc-rMhsBS03Q9fHRM-11" value="Start timer Free Fall &amp;amp;&lt;div&gt;Membunyikan Buzzer&lt;/div&gt;" style="rounded=0;whiteSpace=wrap;html=1;" parent="1" vertex="1">
          <mxGeometry x="110" y="400" width="140" height="60" as="geometry" />
        </mxCell>
        <mxCell id="ZHBRc-rMhsBS03Q9fHRM-22" value="" style="edgeStyle=orthogonalEdgeStyle;rounded=0;orthogonalLoop=1;jettySize=auto;html=1;" parent="1" source="ZHBRc-rMhsBS03Q9fHRM-15" target="ZHBRc-rMhsBS03Q9fHRM-17" edge="1">
          <mxGeometry relative="1" as="geometry" />
        </mxCell>
        <mxCell id="ZHBRc-rMhsBS03Q9fHRM-32" value="" style="edgeStyle=orthogonalEdgeStyle;rounded=0;orthogonalLoop=1;jettySize=auto;html=1;" parent="1" source="ZHBRc-rMhsBS03Q9fHRM-15" target="ZHBRc-rMhsBS03Q9fHRM-31" edge="1">
          <mxGeometry relative="1" as="geometry" />
        </mxCell>
        <mxCell id="ZHBRc-rMhsBS03Q9fHRM-15" value="Dalam 2 detik,&amp;nbsp;&lt;div&gt;apakah A_total &amp;gt; 2.0g?&lt;div&gt;(Impact terdeteksi)&lt;/div&gt;&lt;/div&gt;" style="rhombus;whiteSpace=wrap;html=1;" parent="1" vertex="1">
          <mxGeometry x="85" y="490" width="190" height="100" as="geometry" />
        </mxCell>
        <mxCell id="ZHBRc-rMhsBS03Q9fHRM-21" value="" style="edgeStyle=orthogonalEdgeStyle;rounded=0;orthogonalLoop=1;jettySize=auto;html=1;" parent="1" source="ZHBRc-rMhsBS03Q9fHRM-17" target="ZHBRc-rMhsBS03Q9fHRM-18" edge="1">
          <mxGeometry relative="1" as="geometry" />
        </mxCell>
        <mxCell id="ZHBRc-rMhsBS03Q9fHRM-17" value="Impact Detected &amp;amp;&lt;div&gt;Membunyikan Buzzer&lt;/div&gt;" style="rounded=0;whiteSpace=wrap;html=1;" parent="1" vertex="1">
          <mxGeometry x="110" y="630" width="140" height="60" as="geometry" />
        </mxCell>
        <mxCell id="ZHBRc-rMhsBS03Q9fHRM-20" value="" style="edgeStyle=orthogonalEdgeStyle;rounded=0;orthogonalLoop=1;jettySize=auto;html=1;" parent="1" source="ZHBRc-rMhsBS03Q9fHRM-18" target="ZHBRc-rMhsBS03Q9fHRM-19" edge="1">
          <mxGeometry relative="1" as="geometry" />
        </mxCell>
        <mxCell id="ZHBRc-rMhsBS03Q9fHRM-35" value="" style="edgeStyle=orthogonalEdgeStyle;rounded=0;orthogonalLoop=1;jettySize=auto;html=1;" parent="1" source="ZHBRc-rMhsBS03Q9fHRM-18" target="ZHBRc-rMhsBS03Q9fHRM-34" edge="1">
          <mxGeometry relative="1" as="geometry" />
        </mxCell>
        <mxCell id="ZHBRc-rMhsBS03Q9fHRM-18" value="Dalam 5 detik,&amp;nbsp;&lt;div&gt;apakah A_total &amp;gt; 0.2g?&lt;div&gt;(Impact terdeteksi)&lt;/div&gt;&lt;/div&gt;" style="rhombus;whiteSpace=wrap;html=1;" parent="1" vertex="1">
          <mxGeometry x="85" y="730" width="190" height="100" as="geometry" />
        </mxCell>
        <mxCell id="ZHBRc-rMhsBS03Q9fHRM-27" value="" style="edgeStyle=orthogonalEdgeStyle;rounded=0;orthogonalLoop=1;jettySize=auto;html=1;" parent="1" source="ZHBRc-rMhsBS03Q9fHRM-19" target="ZHBRc-rMhsBS03Q9fHRM-23" edge="1">
          <mxGeometry relative="1" as="geometry" />
        </mxCell>
        <mxCell id="ZHBRc-rMhsBS03Q9fHRM-19" value="Sudden rotation" style="rounded=0;whiteSpace=wrap;html=1;" parent="1" vertex="1">
          <mxGeometry x="120" y="860" width="120" height="60" as="geometry" />
        </mxCell>
        <mxCell id="ZHBRc-rMhsBS03Q9fHRM-26" value="" style="edgeStyle=orthogonalEdgeStyle;rounded=0;orthogonalLoop=1;jettySize=auto;html=1;" parent="1" source="ZHBRc-rMhsBS03Q9fHRM-23" target="ZHBRc-rMhsBS03Q9fHRM-25" edge="1">
          <mxGeometry relative="1" as="geometry" />
        </mxCell>
        <mxCell id="ZHBRc-rMhsBS03Q9fHRM-23" value="Kombinasi FF + Impact + Rot?" style="rhombus;whiteSpace=wrap;html=1;" parent="1" vertex="1">
          <mxGeometry x="80" y="960" width="200" height="110" as="geometry" />
        </mxCell>
        <mxCell id="ZHBRc-rMhsBS03Q9fHRM-38" value="" style="edgeStyle=orthogonalEdgeStyle;rounded=0;orthogonalLoop=1;jettySize=auto;html=1;" parent="1" source="ZHBRc-rMhsBS03Q9fHRM-25" target="ZHBRc-rMhsBS03Q9fHRM-2" edge="1">
          <mxGeometry relative="1" as="geometry" />
        </mxCell>
        <mxCell id="ZHBRc-rMhsBS03Q9fHRM-25" value="Mengirim notifikasi darurat&lt;div&gt;&quot;Jatuh Terdeteksi&quot;&lt;/div&gt;" style="shape=parallelogram;perimeter=parallelogramPerimeter;whiteSpace=wrap;html=1;fixedSize=1;" parent="1" vertex="1">
          <mxGeometry x="95" y="1100" width="170" height="60" as="geometry" />
        </mxCell>
        <mxCell id="ZHBRc-rMhsBS03Q9fHRM-28" value="Lanjut baca sensor" style="rounded=0;whiteSpace=wrap;html=1;" parent="1" vertex="1">
          <mxGeometry x="340" y="290" width="120" height="60" as="geometry" />
        </mxCell>
        <mxCell id="ZHBRc-rMhsBS03Q9fHRM-30" value="" style="endArrow=classic;html=1;rounded=0;exitX=0.5;exitY=0;exitDx=0;exitDy=0;entryX=1;entryY=0.5;entryDx=0;entryDy=0;" parent="1" source="ZHBRc-rMhsBS03Q9fHRM-28" target="ZHBRc-rMhsBS03Q9fHRM-3" edge="1">
          <mxGeometry width="50" height="50" relative="1" as="geometry">
            <mxPoint x="200" y="410" as="sourcePoint" />
            <mxPoint x="250" y="360" as="targetPoint" />
            <Array as="points">
              <mxPoint x="400" y="155" />
            </Array>
          </mxGeometry>
        </mxCell>
        <mxCell id="ZHBRc-rMhsBS03Q9fHRM-31" value="&lt;div&gt;Reser timer,&amp;nbsp;&lt;/div&gt;Lanjut baca sensor" style="rounded=0;whiteSpace=wrap;html=1;" parent="1" vertex="1">
          <mxGeometry x="340" y="510" width="120" height="60" as="geometry" />
        </mxCell>
        <mxCell id="ZHBRc-rMhsBS03Q9fHRM-33" value="" style="endArrow=none;html=1;rounded=0;exitX=0.5;exitY=0;exitDx=0;exitDy=0;startFill=0;entryX=1;entryY=0.5;entryDx=0;entryDy=0;" parent="1" source="ZHBRc-rMhsBS03Q9fHRM-31" target="ZHBRc-rMhsBS03Q9fHRM-3" edge="1">
          <mxGeometry width="50" height="50" relative="1" as="geometry">
            <mxPoint x="410" y="510" as="sourcePoint" />
            <mxPoint x="290" y="210" as="targetPoint" />
            <Array as="points">
              <mxPoint x="400" y="400" />
              <mxPoint x="480" y="400" />
              <mxPoint x="480" y="155" />
            </Array>
          </mxGeometry>
        </mxCell>
        <mxCell id="ZHBRc-rMhsBS03Q9fHRM-34" value="Tidak terdeteksi gerakan&amp;nbsp;" style="rounded=0;whiteSpace=wrap;html=1;" parent="1" vertex="1">
          <mxGeometry x="340" y="750" width="120" height="60" as="geometry" />
        </mxCell>
        <mxCell id="ZHBRc-rMhsBS03Q9fHRM-37" value="" style="endArrow=classic;html=1;rounded=0;exitX=1;exitY=0.5;exitDx=0;exitDy=0;entryX=0.5;entryY=1;entryDx=0;entryDy=0;" parent="1" source="ZHBRc-rMhsBS03Q9fHRM-23" target="ZHBRc-rMhsBS03Q9fHRM-34" edge="1">
          <mxGeometry width="50" height="50" relative="1" as="geometry">
            <mxPoint x="410" y="790" as="sourcePoint" />
            <mxPoint x="360" y="950" as="targetPoint" />
            <Array as="points">
              <mxPoint x="400" y="1015" />
            </Array>
          </mxGeometry>
        </mxCell>
        <mxCell id="ZHBRc-rMhsBS03Q9fHRM-39" value="Yes" style="text;html=1;align=center;verticalAlign=middle;whiteSpace=wrap;rounded=0;" parent="1" vertex="1">
          <mxGeometry x="180" y="830" width="60" height="30" as="geometry" />
        </mxCell>
        <mxCell id="ZHBRc-rMhsBS03Q9fHRM-40" value="No" style="text;html=1;align=center;verticalAlign=middle;whiteSpace=wrap;rounded=0;" parent="1" vertex="1">
          <mxGeometry x="280" y="750" width="60" height="30" as="geometry" />
        </mxCell>
        <mxCell id="ZHBRc-rMhsBS03Q9fHRM-41" value="Yes" style="text;html=1;align=center;verticalAlign=middle;whiteSpace=wrap;rounded=0;" parent="1" vertex="1">
          <mxGeometry x="180" y="1070" width="60" height="30" as="geometry" />
        </mxCell>
        <mxCell id="ZHBRc-rMhsBS03Q9fHRM-42" value="No" style="text;html=1;align=center;verticalAlign=middle;whiteSpace=wrap;rounded=0;" parent="1" vertex="1">
          <mxGeometry x="290" y="980" width="60" height="30" as="geometry" />
        </mxCell>
        <mxCell id="ZHBRc-rMhsBS03Q9fHRM-43" value="Yes" style="text;html=1;align=center;verticalAlign=middle;whiteSpace=wrap;rounded=0;" parent="1" vertex="1">
          <mxGeometry x="180" y="590" width="60" height="30" as="geometry" />
        </mxCell>
        <mxCell id="ZHBRc-rMhsBS03Q9fHRM-44" value="No" style="text;html=1;align=center;verticalAlign=middle;whiteSpace=wrap;rounded=0;" parent="1" vertex="1">
          <mxGeometry x="280" y="510" width="60" height="30" as="geometry" />
        </mxCell>
        <mxCell id="ZHBRc-rMhsBS03Q9fHRM-45" value="Yes" style="text;html=1;align=center;verticalAlign=middle;whiteSpace=wrap;rounded=0;" parent="1" vertex="1">
          <mxGeometry x="180" y="360" width="60" height="30" as="geometry" />
        </mxCell>
        <mxCell id="ZHBRc-rMhsBS03Q9fHRM-46" value="No" style="text;html=1;align=center;verticalAlign=middle;whiteSpace=wrap;rounded=0;" parent="1" vertex="1">
          <mxGeometry x="280" y="290" width="60" height="30" as="geometry" />
        </mxCell>
        <mxCell id="ZHBRc-rMhsBS03Q9fHRM-47" style="edgeStyle=orthogonalEdgeStyle;rounded=0;orthogonalLoop=1;jettySize=auto;html=1;exitX=0.5;exitY=1;exitDx=0;exitDy=0;" parent="1" source="ZHBRc-rMhsBS03Q9fHRM-40" target="ZHBRc-rMhsBS03Q9fHRM-40" edge="1">
          <mxGeometry relative="1" as="geometry" />
        </mxCell>
        <mxCell id="ZHBRc-rMhsBS03Q9fHRM-48" value="" style="endArrow=none;html=1;rounded=0;exitX=0.5;exitY=0;exitDx=0;exitDy=0;startFill=0;entryX=1;entryY=0.5;entryDx=0;entryDy=0;" parent="1" source="ZHBRc-rMhsBS03Q9fHRM-34" target="ZHBRc-rMhsBS03Q9fHRM-3" edge="1">
          <mxGeometry width="50" height="50" relative="1" as="geometry">
            <mxPoint x="410" y="520" as="sourcePoint" />
            <mxPoint x="245" y="170" as="targetPoint" />
            <Array as="points">
              <mxPoint x="400" y="640" />
              <mxPoint x="500" y="640" />
              <mxPoint x="500" y="155" />
            </Array>
          </mxGeometry>
        </mxCell>
        <mxCell id="4NyOSzROxUL3Upl0onSB-21" value="" style="edgeStyle=orthogonalEdgeStyle;rounded=0;orthogonalLoop=1;jettySize=auto;html=1;" edge="1" parent="1" source="4NyOSzROxUL3Upl0onSB-1" target="4NyOSzROxUL3Upl0onSB-2">
          <mxGeometry relative="1" as="geometry" />
        </mxCell>
        <mxCell id="4NyOSzROxUL3Upl0onSB-1" value="Menghidupkan SafePouch" style="shape=parallelogram;perimeter=parallelogramPerimeter;whiteSpace=wrap;html=1;fixedSize=1;" vertex="1" parent="1">
          <mxGeometry x="-130" y="-75" width="180" height="50" as="geometry" />
        </mxCell>
        <mxCell id="4NyOSzROxUL3Upl0onSB-4" value="" style="edgeStyle=orthogonalEdgeStyle;rounded=0;orthogonalLoop=1;jettySize=auto;html=1;" edge="1" parent="1" source="4NyOSzROxUL3Upl0onSB-2" target="4NyOSzROxUL3Upl0onSB-3">
          <mxGeometry relative="1" as="geometry" />
        </mxCell>
        <mxCell id="4NyOSzROxUL3Upl0onSB-6" value="" style="edgeStyle=orthogonalEdgeStyle;rounded=0;orthogonalLoop=1;jettySize=auto;html=1;entryX=0.5;entryY=0;entryDx=0;entryDy=0;" edge="1" parent="1" source="4NyOSzROxUL3Upl0onSB-2" target="4NyOSzROxUL3Upl0onSB-26">
          <mxGeometry relative="1" as="geometry">
            <mxPoint x="-40" y="300" as="targetPoint" />
          </mxGeometry>
        </mxCell>
        <mxCell id="4NyOSzROxUL3Upl0onSB-2" value="Terhubung ke WiFi?&lt;span style=&quot;color: rgba(0, 0, 0, 0); font-family: monospace; font-size: 0px; text-align: start; text-wrap-mode: nowrap;&quot;&gt;%3CmxGraphModel%3E%3Croot%3E%3CmxCell%20id%3D%220%22%2F%3E%3CmxCell%20id%3D%221%22%20parent%3D%220%22%2F%3E%3CmxCell%20id%3D%222%22%20value%3D%22A_total%20%26amp%3Blt%3B%200.4g%3F%26lt%3Bdiv%26gt%3B(Free%20Fall)%26lt%3B%2Fdiv%26gt%3B%22%20style%3D%22rhombus%3BwhiteSpace%3Dwrap%3Bhtml%3D1%3B%22%20vertex%3D%221%22%20parent%3D%221%22%3E%3CmxGeometry%20x%3D%22110%22%20y%3D%22280%22%20width%3D%22140%22%20height%3D%2280%22%20as%3D%22geometry%22%2F%3E%3C%2FmxCell%3E%3C%2Froot%3E%3C%2FmxGraphModel%3E&lt;/span&gt;" style="rhombus;whiteSpace=wrap;html=1;" vertex="1" parent="1">
          <mxGeometry x="-110" y="5" width="140" height="80" as="geometry" />
        </mxCell>
        <mxCell id="4NyOSzROxUL3Upl0onSB-8" value="" style="edgeStyle=orthogonalEdgeStyle;rounded=0;orthogonalLoop=1;jettySize=auto;html=1;" edge="1" parent="1" source="4NyOSzROxUL3Upl0onSB-3" target="4NyOSzROxUL3Upl0onSB-7">
          <mxGeometry relative="1" as="geometry" />
        </mxCell>
        <mxCell id="4NyOSzROxUL3Upl0onSB-3" value="Masuk ke WiFi Manager" style="rounded=0;whiteSpace=wrap;html=1;" vertex="1" parent="1">
          <mxGeometry x="-260" y="15" width="120" height="60" as="geometry" />
        </mxCell>
        <mxCell id="4NyOSzROxUL3Upl0onSB-11" value="" style="edgeStyle=orthogonalEdgeStyle;rounded=0;orthogonalLoop=1;jettySize=auto;html=1;" edge="1" parent="1" source="4NyOSzROxUL3Upl0onSB-7" target="4NyOSzROxUL3Upl0onSB-10">
          <mxGeometry relative="1" as="geometry" />
        </mxCell>
        <mxCell id="4NyOSzROxUL3Upl0onSB-12" value="" style="edgeStyle=orthogonalEdgeStyle;rounded=0;orthogonalLoop=1;jettySize=auto;html=1;" edge="1" parent="1" source="4NyOSzROxUL3Upl0onSB-7" target="4NyOSzROxUL3Upl0onSB-9">
          <mxGeometry relative="1" as="geometry" />
        </mxCell>
        <mxCell id="4NyOSzROxUL3Upl0onSB-7" value="Memasukkan nama&amp;nbsp;&lt;div&gt;dan password WiFi&amp;nbsp;&lt;/div&gt;&lt;div&gt;secara benar?&lt;/div&gt;" style="rhombus;whiteSpace=wrap;html=1;" vertex="1" parent="1">
          <mxGeometry x="-290" y="105" width="180" height="110" as="geometry" />
        </mxCell>
        <mxCell id="4NyOSzROxUL3Upl0onSB-9" value="Menggunakan GSM" style="rounded=0;whiteSpace=wrap;html=1;" vertex="1" parent="1">
          <mxGeometry x="-450" y="130" width="120" height="60" as="geometry" />
        </mxCell>
        <mxCell id="4NyOSzROxUL3Upl0onSB-10" value="Menggunakan WiFi yang ada" style="rounded=0;whiteSpace=wrap;html=1;" vertex="1" parent="1">
          <mxGeometry x="-260" y="245" width="120" height="60" as="geometry" />
        </mxCell>
        <mxCell id="4NyOSzROxUL3Upl0onSB-14" value="" style="endArrow=classic;html=1;rounded=0;exitX=0.5;exitY=1;exitDx=0;exitDy=0;entryX=0;entryY=0.5;entryDx=0;entryDy=0;" edge="1" parent="1" source="4NyOSzROxUL3Upl0onSB-9" target="4NyOSzROxUL3Upl0onSB-26">
          <mxGeometry width="50" height="50" relative="1" as="geometry">
            <mxPoint x="340" y="335" as="sourcePoint" />
            <mxPoint x="-100" y="330" as="targetPoint" />
            <Array as="points">
              <mxPoint x="-390" y="325" />
            </Array>
          </mxGeometry>
        </mxCell>
        <mxCell id="4NyOSzROxUL3Upl0onSB-15" value="Tidak" style="text;html=1;align=center;verticalAlign=middle;whiteSpace=wrap;rounded=0;" vertex="1" parent="1">
          <mxGeometry x="-150" y="45" width="60" height="30" as="geometry" />
        </mxCell>
        <mxCell id="4NyOSzROxUL3Upl0onSB-16" value="Ya" style="text;html=1;align=center;verticalAlign=middle;whiteSpace=wrap;rounded=0;" vertex="1" parent="1">
          <mxGeometry x="-100" y="145" width="60" height="30" as="geometry" />
        </mxCell>
        <mxCell id="4NyOSzROxUL3Upl0onSB-17" value="Tidak" style="text;html=1;align=center;verticalAlign=middle;whiteSpace=wrap;rounded=0;" vertex="1" parent="1">
          <mxGeometry x="-330" y="160" width="60" height="30" as="geometry" />
        </mxCell>
        <mxCell id="4NyOSzROxUL3Upl0onSB-18" value="Ya" style="text;html=1;align=center;verticalAlign=middle;whiteSpace=wrap;rounded=0;" vertex="1" parent="1">
          <mxGeometry x="-250" y="215" width="60" height="30" as="geometry" />
        </mxCell>
        <mxCell id="4NyOSzROxUL3Upl0onSB-20" value="" style="edgeStyle=orthogonalEdgeStyle;rounded=0;orthogonalLoop=1;jettySize=auto;html=1;" edge="1" parent="1" source="4NyOSzROxUL3Upl0onSB-19" target="4NyOSzROxUL3Upl0onSB-1">
          <mxGeometry relative="1" as="geometry" />
        </mxCell>
        <mxCell id="4NyOSzROxUL3Upl0onSB-19" value="Start" style="rounded=1;whiteSpace=wrap;html=1;arcSize=50;" vertex="1" parent="1">
          <mxGeometry x="-100" y="-145" width="120" height="40" as="geometry" />
        </mxCell>
        <mxCell id="4NyOSzROxUL3Upl0onSB-23" value="" style="endArrow=classic;html=1;rounded=0;exitX=0.5;exitY=1;exitDx=0;exitDy=0;entryX=0;entryY=0.5;entryDx=0;entryDy=0;" edge="1" parent="1" source="4NyOSzROxUL3Upl0onSB-10" target="4NyOSzROxUL3Upl0onSB-26">
          <mxGeometry width="50" height="50" relative="1" as="geometry">
            <mxPoint x="-220" y="350" as="sourcePoint" />
            <mxPoint x="-100" y="330" as="targetPoint" />
            <Array as="points">
              <mxPoint x="-200" y="325" />
            </Array>
          </mxGeometry>
        </mxCell>
        <mxCell id="4NyOSzROxUL3Upl0onSB-24" value="" style="endArrow=classic;html=1;rounded=0;exitX=1;exitY=0.5;exitDx=0;exitDy=0;entryX=0;entryY=0.5;entryDx=0;entryDy=0;" edge="1" parent="1" source="4NyOSzROxUL3Upl0onSB-26" target="4NyOSzROxUL3Upl0onSB-32">
          <mxGeometry width="50" height="50" relative="1" as="geometry">
            <mxPoint x="20" y="330" as="sourcePoint" />
            <mxPoint y="455" as="targetPoint" />
            <Array as="points">
              <mxPoint x="60" y="325" />
              <mxPoint x="60" y="75" />
            </Array>
          </mxGeometry>
        </mxCell>
        <mxCell id="4NyOSzROxUL3Upl0onSB-26" value="Menghubungkan&amp;nbsp;&lt;div&gt;ke WebSocket&lt;/div&gt;" style="rhombus;whiteSpace=wrap;html=1;" vertex="1" parent="1">
          <mxGeometry x="-110" y="280" width="140" height="90" as="geometry" />
        </mxCell>
        <mxCell id="4NyOSzROxUL3Upl0onSB-28" value="Ya" style="text;html=1;align=center;verticalAlign=middle;whiteSpace=wrap;rounded=0;" vertex="1" parent="1">
          <mxGeometry x="10" y="290" width="60" height="30" as="geometry" />
        </mxCell>
        <mxCell id="4NyOSzROxUL3Upl0onSB-29" value="" style="endArrow=classic;html=1;rounded=0;exitX=0.5;exitY=1;exitDx=0;exitDy=0;entryX=0;entryY=0.5;entryDx=0;entryDy=0;" edge="1" parent="1" source="4NyOSzROxUL3Upl0onSB-26" target="4NyOSzROxUL3Upl0onSB-26">
          <mxGeometry width="50" height="50" relative="1" as="geometry">
            <mxPoint x="60" y="395" as="sourcePoint" />
            <mxPoint x="155" y="230" as="targetPoint" />
            <Array as="points">
              <mxPoint x="-40" y="410" />
              <mxPoint x="-160" y="410" />
              <mxPoint x="-160" y="325" />
            </Array>
          </mxGeometry>
        </mxCell>
        <mxCell id="4NyOSzROxUL3Upl0onSB-30" value="Tidak" style="text;html=1;align=center;verticalAlign=middle;whiteSpace=wrap;rounded=0;" vertex="1" parent="1">
          <mxGeometry x="-140" y="380" width="60" height="30" as="geometry" />
        </mxCell>
        <mxCell id="4NyOSzROxUL3Upl0onSB-33" value="" style="edgeStyle=orthogonalEdgeStyle;rounded=0;orthogonalLoop=1;jettySize=auto;html=1;entryX=0.5;entryY=0;entryDx=0;entryDy=0;" edge="1" parent="1" source="4NyOSzROxUL3Upl0onSB-32" target="ZHBRc-rMhsBS03Q9fHRM-3">
          <mxGeometry relative="1" as="geometry" />
        </mxCell>
        <mxCell id="4NyOSzROxUL3Upl0onSB-32" value="Kondisi Awal = IDLE" style="rounded=0;whiteSpace=wrap;html=1;" vertex="1" parent="1">
          <mxGeometry x="120" y="45" width="120" height="60" as="geometry" />
        </mxCell>
      </root>
    </mxGraphModel>
  </diagram>
</mxfile>
